                <svg>
                <g xmlns="http://www.w3.org/2000/svg" id="Page-1" stroke="none" stroke-width="1" fill="none" fill-rule="evenodd"><g id="1920" transform="translate(-614.000000, -503.000000)" fill="#33FAFA" fill-rule="nonzero"><g id="its-free-LP-01" transform="translate(611.000000, 478.000000)"><g id="Group-7" transform="translate(43.019024, 39.009095) rotate(-37.000000) translate(-43.019024, -39.009095) translate(5.019024, 19.509095)"><path d="M5.012 4.177c.405.17.825.3 1.255.39l.242.051c.345.086.683.197 1.012.333a56.334 56.334 0 00-.87 2.324c-.202.567-.357 1.151-.463 1.745-.083.44-.06.895.064 1.325.146.412.39.78.713 1.071.43.394.91.727 1.426.992.725.38 1.47.722 2.23 1.02l.35.145.606.232.292.109.285.115.4.167c.261.135.558.18.848.13a.808.808 0 00.384-.478l.065-.166c.028-.073.05-.148.064-.225a.566.566 0 000-.238.195.195 0 00-.121-.145.309.309 0 00-.15 0h-.627l-.278-.094-.314-.123-1.148-.47a25.976 25.976 0 01-1.767-.819 3.319 3.319 0 01-1.233-1.028 2.315 2.315 0 01-.371-1.448 6.795 6.795 0 01.549-2.128v-.065l.114-.254c.062-.13.126-.256.192-.376l.064-.116c.038-.072.07-.142.093-.21l.064-.166.328-.145 2.516 1.035h.057l.3.188.463.312.2.123.185.108h.064c.099.04.202.07.307.087.113.018.228.018.342 0a.756.756 0 00.328-.13.585.585 0 00.213-.268.293.293 0 00-.035-.181c-.038-.087-.071-.138-.1-.152l-.05-.058-.085-.08a1.334 1.334 0 00-.243-.18l-.092-.059-.164-.115-.05-.044-.107-.065-.071-.036-.642-.37-1.39-.81-.713-.391-.712-.377c-.134-.072-.181-.217-.143-.434.05-.248.124-.49.22-.724l.172-.42.192-.456c.14-.274.257-.56.35-.854.055-.255.055-.52 0-.775a.67.67 0 00-.442-.5h-.143a1.116 1.116 0 00-.22 0 .786.786 0 00-.207 0 .172.172 0 00-.129.117L8.056 3.692l-2.139-.89s-.064 0-.142.05l-.293.145-.335.18a1.76 1.76 0 00-.249.174l-.05.116c-.052.134-.08.276-.085.42.016.14.115.255.25.29z" id="Path"/><path d="M16.806 7.5c.106.02.214.02.32 0 .103.012.208.012.311 0 .13-.446.288-.883.472-1.308.18-.412.374-.81.582-1.192.208-.383.414-.77.617-1.163.21-.408.398-.827.562-1.257a.873.873 0 000-.64.89.89 0 00-.527-.501.665.665 0 00-.603 0 2.305 2.305 0 00-.548.443 2.995 2.995 0 00-.478.727c-.139.28-.27.552-.396.814a7.346 7.346 0 00-.298.726l-.041.131-.153.422a3.026 3.026 0 00-.083.283l-.062.255a6.072 6.072 0 00-.14.879c-.027.284-.01.571.05.85a.72.72 0 00.415.53z" id="Path"/><path d="M1.185 10.247c.155-.374.282-.758.38-1.15.104-.409.204-.83.3-1.261l.286-1.283c.092-.417.206-.828.343-1.233v-.05l.615-1.574c.148-.376.294-.771.437-1.185.143-.413.264-.794.365-1.143.087-.286.144-.58.171-.878 0-.237-.043-.376-.129-.418a.578.578 0 00-.557 0 1.52 1.52 0 00-.422.46c-.134.21-.25.432-.344.662l-.35.85c-.029.074-.058.151-.086.23l-.036.112-.043.111-.043.112a15.73 15.73 0 01-.55 1.359L.849 5.445a15.34 15.34 0 00-.572 1.492A5.32 5.32 0 00.005 8.33c-.027.392.054.784.236 1.136.206.364.542.642.944.78z" id="Path"/><path d="M18.478 9.729a1.028 1.028 0 00-.754.537.682.682 0 000 .43c.033.154.094.302.181.436l1.884.966.754.387.362.2 3.165 1.719c.328.174.634.383.912.623.254.223.443.504.55.816.109.338.082.703-.075 1.024a.602.602 0 01-.347.343 2.404 2.404 0 01-.543.136l-.61.093a1.29 1.29 0 00-.505.187 6.324 6.324 0 00-.626-.093l-.301-.036-.633-.1-.324-.05-.626-.087h-.24l-.265-.035h-.113l-.143-.036h-.083l-.18-.072a.76.76 0 01-.204-.121 1.699 1.699 0 01-.173-.158.152.152 0 01-.038-.172l.249-1.926h-.076a.535.535 0 00-.505.043 1.305 1.305 0 00-.4.401 3.512 3.512 0 00-.286.544l-.203.473c-.117.244-.15.518-.09.78.062.237.183.455.354.637.182.196.395.363.633.494.227.13.464.242.708.337.627.234 1.275.411 1.937.53a8.02 8.02 0 002.11.129 4.772 4.772 0 001.87-.516 2.67 2.67 0 001.235-1.546c.194-.423.228-.895.098-1.34a3.346 3.346 0 00-.693-1.21 6.542 6.542 0 00-1.206-1.066c-.48-.33-.984-.629-1.507-.895a21.998 21.998 0 00-1.47-.716l-.64-.265-.52-.207.105-.25.452.07.58.108 1.108.2 1.236.223.475.093.445.129c.158.053.32.098.482.136.15.04.31.04.46 0a.534.534 0 00.324-.337.63.63 0 000-.616.966.966 0 00-.475-.393 9.37 9.37 0 00-.754-.244l-.399-.114a19.245 19.245 0 00-1.658-.373 40.746 40.746 0 00-1.861-.293 12.144 12.144 0 00-1.756-.122 5.803 5.803 0 00-1.387.165z" id="Path"/><path d="M61.06 32.502a22.061 22.061 0 01-1.927-.628l-.696-.26a8.448 8.448 0 01-.909-.41 11.7 11.7 0 01-.945-.546c-.296-.19-.56-.42-.784-.683a2.14 2.14 0 01-.44-.778 1.28 1.28 0 01.074-.888s.05-.04.131-.075a.481.481 0 01.206-.048h.11l.175.034.55.123.542.137c.108.032.218.055.33.068l.469.069 1.011.116 1.165.15.477.055.534.047h.484l.564-.102c.14-.023.276-.064.403-.123a.716.716 0 00.286-.246 2.83 2.83 0 00.242-.464 2.25 2.25 0 00.19-1.25 2.729 2.729 0 00-.432-1.1 3.359 3.359 0 00-.886-.894 5.243 5.243 0 00-1.173-.615 4.873 4.873 0 00-1.759-.28 6.682 6.682 0 00-1.949.3c-.63.195-1.217.49-1.736.875a3.387 3.387 0 00-1.129 1.366 6.31 6.31 0 00-.425 1.366 4.516 4.516 0 000 1.516c.06.457.215.9.454 1.304.256.423.606.791 1.026 1.079l.601.225.403.164.198.082.374.143.41.15.93.349.565.205c.45.16.89.307 1.319.444.43.136.894.257 1.392.362.489.109 1.07.214 1.744.314.095.01.19-.02.257-.082a1.439 1.439 0 00.388-.519l.08-.185a22.352 22.352 0 00-2.374-.737l-.52-.13zm-4.917-6.76c.24-.125.5-.215.77-.267.313-.061.633-.089.952-.082a8.449 8.449 0 012.77.506l.22.082.3.123.36.163.124.055.183.287-.044.095c-.103.26-.31.474-.579.595a2.38 2.38 0 01-.908.19c-.38.008-.76-.031-1.129-.115-.41-.087-.82-.194-1.23-.321-.411-.128-.81-.264-1.195-.41l-1.077-.403a1.02 1.02 0 01.49-.498h-.007z" id="Shape"/><path d="M54.835 23.744a.447.447 0 00.183-.105.077.077 0 01.044-.04l.043-.039v-.085a.118.118 0 010-.046.59.59 0 000-.144.95.95 0 00-.073-.17l-.087-.165-.059-.111-.562-.342-.38-.249-.19-.131-.372-.236-.227-.138-.131-.085-.14-.053a6.669 6.669 0 00-1.781-.4 9.448 9.448 0 00-3.127.282c-.401.106-.796.23-1.183.374-.33.127-.599.234-.803.322-.205.087-.331.124-.38.111a.204.204 0 01-.11-.092l-.065-.13a.585.585 0 00-.088-.139.353.353 0 00-.153-.111.974.974 0 00-.534-.066c-.206.05-.407.119-.599.204a.077.077 0 00-.043.039l-.052.111v.053a.208.208 0 000 .184.432.432 0 00.08.124l-1.175 4.448a.26.26 0 000 .125.3.3 0 00.117.164.068.068 0 00.036.039h.044c.087.035.182.05.278.046.077-.007.153-.022.226-.046h.256a1 1 0 01.401.079l1.461-3.202c.18-.373.465-.698.826-.944.396-.28.84-.502 1.314-.656.47-.16.961-.265 1.461-.309a2.91 2.91 0 011.25.125l4.148 1.502.146-.098z" id="Path"/><path d="M73.157 37.383l-.484-.13a22.098 22.098 0 01-1.931-.63l-.697-.26a8.455 8.455 0 01-.91-.41 11.72 11.72 0 01-.948-.547 3.582 3.582 0 01-.785-.684 2.144 2.144 0 01-.44-.78 1.282 1.282 0 01.073-.89s.051-.04.132-.075a.482.482 0 01.206-.048h.11l.176.034.55.123.544.137c.107.032.218.055.33.069l.47.068 1.013.116 1.167.15.477.056.536.048h.125l.352.047.309-.054.256-.048c.14-.023.277-.064.404-.123a.717.717 0 00.287-.247c.095-.148.176-.303.242-.465.182-.394.248-.826.19-1.252a2.734 2.734 0 00-.432-1.102 3.365 3.365 0 00-.889-.896 5.252 5.252 0 00-1.174-.616 4.881 4.881 0 00-1.762-.28 6.693 6.693 0 00-1.953.3 5.743 5.743 0 00-1.725.945c-.51.353-.91.825-1.16 1.368-.194.441-.336.9-.426 1.369-.085.465-.098.94-.036 1.41.06.466.217.917.462 1.327.256.424.607.793 1.028 1.08l.602.227.404.164.198.082.374.144.411.15.933.35.565.205c.45.16.89.307 1.321.444.43.137.896.258 1.395.363.49.11 1.072.214 1.747.315.095.01.19-.02.257-.082.087-.07.163-.151.228-.24.064-.088.118-.182.161-.28l.08-.185a22.354 22.354 0 00-2.363-.767zm-5.432-6.897c.24-.125.5-.215.77-.267.314-.061.635-.089.955-.082a8.463 8.463 0 012.775.507l.22.082.301.123.455.205.184.288-.044.095c-.104.261-.312.475-.58.596a2.384 2.384 0 01-.91.191c-.381.007-.761-.032-1.131-.116a13.637 13.637 0 01-1.233-.322 21.17 21.17 0 01-1.197-.41l-1.006-.39c.083-.208.238-.384.44-.5z" id="Shape"/><path d="M42.847 20.167l.048-.148a1.87 1.87 0 00.055-.283 1.072 1.072 0 000-.282.27.27 0 00-.124-.198 20.49 20.49 0 00-2.48-1.335 42.695 42.695 0 00-2.569-1.052.817.817 0 01-.158-.41 4.165 4.165 0 010-.43l.558-1.28c.207-.46.437-.911.688-1.349.242-.434.52-.845.834-1.229a4.39 4.39 0 011.02-.925 2.71 2.71 0 011.24-.424 3.241 3.241 0 011.535.29c.203.087.4.186.593.296.246.134.477.295.688.48.196.17.362.374.49.601a.787.787 0 010 .707l-.097.254-.076.12-.179.318-.11.19-.22.36-.049.078-.117.17.138.325a.07.07 0 00.034.042h.07a.512.512 0 00.447 0 1.43 1.43 0 00.406-.31c.123-.131.234-.273.331-.424a2.58 2.58 0 00.406-1.702 2.662 2.662 0 00-.399-1.103 3.404 3.404 0 00-.82-.875 5.163 5.163 0 00-1.15-.65 5.017 5.017 0 00-1.867-.424 3.7 3.7 0 00-1.55.304c-.47.21-.898.51-1.26.883a8.306 8.306 0 00-1.033 1.306c-.325.503-.612 1.03-.861 1.575-.257.56-.487 1.124-.689 1.689l-.041.113-.634 1.667a58.21 58.21 0 00-.579 1.66 38.73 38.73 0 00-.688 2.31c-.212.795-.384 1.53-.517 2.203a7.442 7.442 0 00-.138 1.717c.028.47.18.765.455.883.086.034.176.058.268.07a.947.947 0 00.324 0 .68.68 0 00.296-.134.475.475 0 00.159-.268l1.433-6.965.09-.226a.676.676 0 01.433-.113 3 3 0 01.551.07c.155.032.307.077.455.135l.296.127.634.24.571.226.283.113.585.233 1.075.41.688.247.228.127z" id="Path"/></g><path d="M135.966 66.623c-22.499 4.192-42.409-.13-59.729-12.966-6.789-5.182-11.603-10.97-14.443-17.362l3.86 2.999a.572.572 0 00.994-.324.562.562 0 00-.292-.547l-5.51-4.301a.573.573 0 00-.918.357l-.923 6.937a.568.568 0 00.495.638c.314.04.603-.18.645-.493l.623-4.767c2.945 6.554 7.875 12.471 14.79 17.751 17.59 13.038 37.795 17.435 60.617 13.19a.577.577 0 00.466-.67.577.577 0 00-.675-.459v.017z" id="Path" transform="translate(97.825155, 51.649581) scale(-1, 1) rotate(-25.000000) translate(-97.825155, -51.649581) "/></g></g></g>
                </svg>