<?xml version="1.0" encoding="UTF-8" standalone="no"?>
<!-- Created with Inkscape (http://www.inkscape.org/) -->

<svg
   width="56.637684mm"
   height="21.781845mm"
   viewBox="0 0 56.637684 21.781845"
   version="1.1"
   id="svg5"
   xml:space="preserve"
   sodipodi:docname="itsfree2.svg"
   inkscape:export-filename="itsfree2.png"
   inkscape:export-xdpi="90.956192"
   inkscape:export-ydpi="90.956192"
   xmlns:inkscape="http://www.inkscape.org/namespaces/inkscape"
   xmlns:sodipodi="http://sodipodi.sourceforge.net/DTD/sodipodi-0.dtd"
   xmlns="http://www.w3.org/2000/svg"
   xmlns:svg="http://www.w3.org/2000/svg"><sodipodi:namedview
     id="namedview7"
     pagecolor="#ffffff"
     bordercolor="#666666"
     borderopacity="1.0"
     inkscape:showpageshadow="2"
     inkscape:pageopacity="0.0"
     inkscape:pagecheckerboard="0"
     inkscape:deskcolor="#d1d1d1"
     inkscape:document-units="mm"
     showgrid="false"
     inkscape:zoom="1.0544998"
     inkscape:cx="229.01854"
     inkscape:cy="664.77018"
     inkscape:window-width="1920"
     inkscape:window-height="1017"
     inkscape:window-x="1912"
     inkscape:window-y="-8"
     inkscape:window-maximized="1"
     inkscape:current-layer="layer1" /><defs
     id="defs2" /><g
     inkscape:label="Capa 1"
     inkscape:groupmode="layer"
     id="layer1"
     transform="translate(-45.547277,-117.52871)"><g
       id="its-free-LP-01"
       transform="matrix(0.41698232,0,0,0.54934139,44.03715,103.44069)"
       style="fill:#00ff00;fill-rule:nonzero;stroke:none;stroke-width:1"><g
         id="Group-7"
         transform="rotate(-37,69.662781,21.754407)"
         style="fill:#00ff00"><path
           d="m 5.012,4.177 c 0.405,0.17 0.825,0.3 1.255,0.39 L 6.509,4.618 C 6.854,4.704 7.192,4.815 7.521,4.951 A 56.334,56.334 0 0 0 6.651,7.275 C 6.449,7.842 6.294,8.426 6.188,9.02 c -0.083,0.44 -0.06,0.895 0.064,1.325 0.146,0.412 0.39,0.78 0.713,1.071 0.43,0.394 0.91,0.727 1.426,0.992 0.725,0.38 1.47,0.722 2.23,1.02 l 0.35,0.145 0.606,0.232 0.292,0.109 0.285,0.115 0.4,0.167 c 0.261,0.135 0.558,0.18 0.848,0.13 a 0.808,0.808 0 0 0 0.384,-0.478 l 0.065,-0.166 c 0.028,-0.073 0.05,-0.148 0.064,-0.225 a 0.566,0.566 0 0 0 0,-0.238 0.195,0.195 0 0 0 -0.121,-0.145 0.309,0.309 0 0 0 -0.15,0 H 13.017 L 12.739,12.98 12.425,12.857 11.277,12.387 A 25.976,25.976 0 0 1 9.51,11.568 3.319,3.319 0 0 1 8.277,10.54 2.315,2.315 0 0 1 7.906,9.092 6.795,6.795 0 0 1 8.455,6.964 V 6.899 L 8.569,6.645 C 8.631,6.515 8.695,6.389 8.761,6.269 L 8.825,6.153 C 8.863,6.081 8.895,6.011 8.918,5.943 L 8.982,5.777 9.31,5.632 11.826,6.667 h 0.057 l 0.3,0.188 0.463,0.312 0.2,0.123 0.185,0.108 h 0.064 c 0.099,0.04 0.202,0.07 0.307,0.087 0.113,0.018 0.228,0.018 0.342,0 A 0.756,0.756 0 0 0 14.072,7.355 0.585,0.585 0 0 0 14.285,7.087 0.293,0.293 0 0 0 14.25,6.906 C 14.212,6.819 14.179,6.768 14.15,6.754 L 14.1,6.696 14.015,6.616 A 1.334,1.334 0 0 0 13.772,6.436 L 13.68,6.377 13.516,6.262 13.466,6.218 13.359,6.153 13.288,6.117 12.646,5.747 11.256,4.937 10.543,4.546 9.831,4.169 C 9.697,4.097 9.65,3.952 9.688,3.735 9.738,3.487 9.812,3.245 9.908,3.011 l 0.172,-0.42 0.192,-0.456 c 0.14,-0.274 0.257,-0.56 0.35,-0.854 0.055,-0.255 0.055,-0.52 0,-0.775 a 0.67,0.67 0 0 0 -0.442,-0.5 h -0.143 a 1.116,1.116 0 0 0 -0.22,0 0.786,0.786 0 0 0 -0.207,0 0.172,0.172 0 0 0 -0.129,0.117 L 8.056,3.692 5.917,2.802 c 0,0 -0.064,0 -0.142,0.05 L 5.482,2.997 5.147,3.177 A 1.76,1.76 0 0 0 4.898,3.351 l -0.05,0.116 c -0.052,0.134 -0.08,0.276 -0.085,0.42 0.016,0.14 0.115,0.255 0.25,0.29 z"
           id="Path"
           style="fill:#00ff00" /><path
           d="m 16.806,7.5 c 0.106,0.02 0.214,0.02 0.32,0 0.103,0.012 0.208,0.012 0.311,0 0.13,-0.446 0.288,-0.883 0.472,-1.308 C 18.089,5.78 18.283,5.382 18.491,5 18.699,4.617 18.905,4.23 19.108,3.837 19.318,3.429 19.506,3.01 19.67,2.58 a 0.873,0.873 0 0 0 0,-0.64 0.89,0.89 0 0 0 -0.527,-0.501 0.665,0.665 0 0 0 -0.603,0 2.305,2.305 0 0 0 -0.548,0.443 2.995,2.995 0 0 0 -0.478,0.727 c -0.139,0.28 -0.27,0.552 -0.396,0.814 A 7.346,7.346 0 0 0 16.82,4.149 L 16.779,4.28 16.626,4.702 A 3.026,3.026 0 0 0 16.543,4.985 L 16.481,5.24 a 6.072,6.072 0 0 0 -0.14,0.879 c -0.027,0.284 -0.01,0.571 0.05,0.85 a 0.72,0.72 0 0 0 0.415,0.53 z"
           id="path133"
           style="fill:#00ff00" /><path
           d="M 1.185,10.247 C 1.34,9.873 1.467,9.489 1.565,9.097 1.669,8.688 1.769,8.267 1.865,7.836 L 2.151,6.553 C 2.243,6.136 2.357,5.725 2.494,5.32 V 5.27 L 3.109,3.696 C 3.257,3.32 3.403,2.925 3.546,2.511 3.689,2.098 3.81,1.717 3.911,1.368 3.998,1.082 4.055,0.788 4.082,0.49 4.082,0.253 4.039,0.114 3.953,0.072 a 0.578,0.578 0 0 0 -0.557,0 1.52,1.52 0 0 0 -0.422,0.46 C 2.84,0.742 2.724,0.964 2.63,1.194 L 2.28,2.044 C 2.251,2.118 2.222,2.195 2.194,2.274 L 2.158,2.386 2.115,2.497 2.072,2.609 A 15.73,15.73 0 0 1 1.522,3.968 L 0.849,5.445 A 15.34,15.34 0 0 0 0.277,6.937 5.32,5.32 0 0 0 0.005,8.33 c -0.027,0.392 0.054,0.784 0.236,1.136 0.206,0.364 0.542,0.642 0.944,0.78 z"
           id="path135"
           style="fill:#00ff00" /><path
           d="m 18.478,9.729 a 1.028,1.028 0 0 0 -0.754,0.537 0.682,0.682 0 0 0 0,0.43 c 0.033,0.154 0.094,0.302 0.181,0.436 l 1.884,0.966 0.754,0.387 0.362,0.2 3.165,1.719 c 0.328,0.174 0.634,0.383 0.912,0.623 0.254,0.223 0.443,0.504 0.55,0.816 0.109,0.338 0.082,0.703 -0.075,1.024 a 0.602,0.602 0 0 1 -0.347,0.343 2.404,2.404 0 0 1 -0.543,0.136 l -0.61,0.093 a 1.29,1.29 0 0 0 -0.505,0.187 6.324,6.324 0 0 0 -0.626,-0.093 l -0.301,-0.036 -0.633,-0.1 -0.324,-0.05 -0.626,-0.087 h -0.24 l -0.265,-0.035 h -0.113 l -0.143,-0.036 h -0.083 l -0.18,-0.072 a 0.76,0.76 0 0 1 -0.204,-0.121 1.699,1.699 0 0 1 -0.173,-0.158 0.152,0.152 0 0 1 -0.038,-0.172 l 0.249,-1.926 h -0.076 a 0.535,0.535 0 0 0 -0.505,0.043 1.305,1.305 0 0 0 -0.4,0.401 3.512,3.512 0 0 0 -0.286,0.544 l -0.203,0.473 c -0.117,0.244 -0.15,0.518 -0.09,0.78 0.062,0.237 0.183,0.455 0.354,0.637 0.182,0.196 0.395,0.363 0.633,0.494 0.227,0.13 0.464,0.242 0.708,0.337 0.627,0.234 1.275,0.411 1.937,0.53 a 8.02,8.02 0 0 0 2.11,0.129 4.772,4.772 0 0 0 1.87,-0.516 2.67,2.67 0 0 0 1.235,-1.546 c 0.194,-0.423 0.228,-0.895 0.098,-1.34 a 3.346,3.346 0 0 0 -0.693,-1.21 6.542,6.542 0 0 0 -1.206,-1.066 c -0.48,-0.33 -0.984,-0.629 -1.507,-0.895 a 21.998,21.998 0 0 0 -1.47,-0.716 l -0.64,-0.265 -0.52,-0.207 0.105,-0.25 0.452,0.07 0.58,0.108 1.108,0.2 1.236,0.223 0.475,0.093 0.445,0.129 c 0.158,0.053 0.32,0.098 0.482,0.136 0.15,0.04 0.31,0.04 0.46,0 a 0.534,0.534 0 0 0 0.324,-0.337 0.63,0.63 0 0 0 0,-0.616 0.966,0.966 0 0 0 -0.475,-0.393 9.37,9.37 0 0 0 -0.754,-0.244 L 25.14,10.352 A 19.245,19.245 0 0 0 23.482,9.979 40.746,40.746 0 0 0 21.621,9.686 12.144,12.144 0 0 0 19.865,9.564 5.803,5.803 0 0 0 18.478,9.729 Z"
           id="path137"
           style="fill:#00ff00" /><path
           d="m 61.06,32.502 a 22.061,22.061 0 0 1 -1.927,-0.628 l -0.696,-0.26 a 8.448,8.448 0 0 1 -0.909,-0.41 11.7,11.7 0 0 1 -0.945,-0.546 c -0.296,-0.19 -0.56,-0.42 -0.784,-0.683 a 2.14,2.14 0 0 1 -0.44,-0.778 1.28,1.28 0 0 1 0.074,-0.888 c 0,0 0.05,-0.04 0.131,-0.075 a 0.481,0.481 0 0 1 0.206,-0.048 h 0.11 l 0.175,0.034 0.55,0.123 0.542,0.137 c 0.108,0.032 0.218,0.055 0.33,0.068 l 0.469,0.069 1.011,0.116 1.165,0.15 0.477,0.055 0.534,0.047 h 0.484 l 0.564,-0.102 c 0.14,-0.023 0.276,-0.064 0.403,-0.123 a 0.716,0.716 0 0 0 0.286,-0.246 2.83,2.83 0 0 0 0.242,-0.464 2.25,2.25 0 0 0 0.19,-1.25 2.729,2.729 0 0 0 -0.432,-1.1 3.359,3.359 0 0 0 -0.886,-0.894 5.243,5.243 0 0 0 -1.173,-0.615 4.873,4.873 0 0 0 -1.759,-0.28 6.682,6.682 0 0 0 -1.949,0.3 c -0.63,0.195 -1.217,0.49 -1.736,0.875 a 3.387,3.387 0 0 0 -1.129,1.366 6.31,6.31 0 0 0 -0.425,1.366 4.516,4.516 0 0 0 0,1.516 c 0.06,0.457 0.215,0.9 0.454,1.304 0.256,0.423 0.606,0.791 1.026,1.079 l 0.601,0.225 0.403,0.164 0.198,0.082 0.374,0.143 0.41,0.15 0.93,0.349 0.565,0.205 c 0.45,0.16 0.89,0.307 1.319,0.444 0.43,0.136 0.894,0.257 1.392,0.362 0.489,0.109 1.07,0.214 1.744,0.314 0.095,0.01 0.19,-0.02 0.257,-0.082 a 1.439,1.439 0 0 0 0.388,-0.519 l 0.08,-0.185 A 22.352,22.352 0 0 0 61.58,32.632 Z m -4.917,-6.76 c 0.24,-0.125 0.5,-0.215 0.77,-0.267 0.313,-0.061 0.633,-0.089 0.952,-0.082 a 8.449,8.449 0 0 1 2.77,0.506 l 0.22,0.082 0.3,0.123 0.36,0.163 0.124,0.055 0.183,0.287 -0.044,0.095 c -0.103,0.26 -0.31,0.474 -0.579,0.595 a 2.38,2.38 0 0 1 -0.908,0.19 c -0.38,0.008 -0.76,-0.031 -1.129,-0.115 -0.41,-0.087 -0.82,-0.194 -1.23,-0.321 -0.411,-0.128 -0.81,-0.264 -1.195,-0.41 L 55.66,26.24 a 1.02,1.02 0 0 1 0.49,-0.498 z"
           id="Shape"
           style="fill:#00ff00" /><path
           d="m 54.835,23.744 a 0.447,0.447 0 0 0 0.183,-0.105 0.077,0.077 0 0 1 0.044,-0.04 l 0.043,-0.039 v -0.085 a 0.118,0.118 0 0 1 0,-0.046 0.59,0.59 0 0 0 0,-0.144 0.95,0.95 0 0 0 -0.073,-0.17 l -0.087,-0.165 -0.059,-0.111 -0.562,-0.342 -0.38,-0.249 -0.19,-0.131 -0.372,-0.236 -0.227,-0.138 -0.131,-0.085 -0.14,-0.053 a 6.669,6.669 0 0 0 -1.781,-0.4 9.448,9.448 0 0 0 -3.127,0.282 c -0.401,0.106 -0.796,0.23 -1.183,0.374 -0.33,0.127 -0.599,0.234 -0.803,0.322 -0.205,0.087 -0.331,0.124 -0.38,0.111 A 0.204,0.204 0 0 1 45.5,22.202 l -0.065,-0.13 A 0.585,0.585 0 0 0 45.347,21.933 0.353,0.353 0 0 0 45.194,21.822 0.974,0.974 0 0 0 44.66,21.756 c -0.206,0.05 -0.407,0.119 -0.599,0.204 a 0.077,0.077 0 0 0 -0.043,0.039 l -0.052,0.111 v 0.053 a 0.208,0.208 0 0 0 0,0.184 0.432,0.432 0 0 0 0.08,0.124 l -1.175,4.448 a 0.26,0.26 0 0 0 0,0.125 0.3,0.3 0 0 0 0.117,0.164 0.068,0.068 0 0 0 0.036,0.039 h 0.044 c 0.087,0.035 0.182,0.05 0.278,0.046 0.077,-0.007 0.153,-0.022 0.226,-0.046 h 0.256 a 1,1 0 0 1 0.401,0.079 l 1.461,-3.202 c 0.18,-0.373 0.465,-0.698 0.826,-0.944 0.396,-0.28 0.84,-0.502 1.314,-0.656 0.47,-0.16 0.961,-0.265 1.461,-0.309 a 2.91,2.91 0 0 1 1.25,0.125 l 4.148,1.502 z"
           id="path140"
           style="fill:#00ff00" /><path
           d="m 73.157,37.383 -0.484,-0.13 a 22.098,22.098 0 0 1 -1.931,-0.63 l -0.697,-0.26 a 8.455,8.455 0 0 1 -0.91,-0.41 11.72,11.72 0 0 1 -0.948,-0.547 3.582,3.582 0 0 1 -0.785,-0.684 2.144,2.144 0 0 1 -0.44,-0.78 1.282,1.282 0 0 1 0.073,-0.89 c 0,0 0.051,-0.04 0.132,-0.075 a 0.482,0.482 0 0 1 0.206,-0.048 h 0.11 l 0.176,0.034 0.55,0.123 0.544,0.137 c 0.107,0.032 0.218,0.055 0.33,0.069 l 0.47,0.068 1.013,0.116 1.167,0.15 0.477,0.056 0.536,0.048 h 0.125 l 0.352,0.047 0.309,-0.054 0.256,-0.048 c 0.14,-0.023 0.277,-0.064 0.404,-0.123 a 0.717,0.717 0 0 0 0.287,-0.247 c 0.095,-0.148 0.176,-0.303 0.242,-0.465 0.182,-0.394 0.248,-0.826 0.19,-1.252 a 2.734,2.734 0 0 0 -0.432,-1.102 3.365,3.365 0 0 0 -0.889,-0.896 5.252,5.252 0 0 0 -1.174,-0.616 4.881,4.881 0 0 0 -1.762,-0.28 6.693,6.693 0 0 0 -1.953,0.3 5.743,5.743 0 0 0 -1.725,0.945 c -0.51,0.353 -0.91,0.825 -1.16,1.368 -0.194,0.441 -0.336,0.9 -0.426,1.369 -0.085,0.465 -0.098,0.94 -0.036,1.41 0.06,0.466 0.217,0.917 0.462,1.327 0.256,0.424 0.607,0.793 1.028,1.08 l 0.602,0.227 0.404,0.164 0.198,0.082 0.374,0.144 0.411,0.15 0.933,0.35 0.565,0.205 c 0.45,0.16 0.89,0.307 1.321,0.444 0.43,0.137 0.896,0.258 1.395,0.363 0.49,0.11 1.072,0.214 1.747,0.315 0.095,0.01 0.19,-0.02 0.257,-0.082 0.087,-0.07 0.163,-0.151 0.228,-0.24 0.064,-0.088 0.118,-0.182 0.161,-0.28 l 0.08,-0.185 a 22.354,22.354 0 0 0 -2.363,-0.767 z m -5.432,-6.897 c 0.24,-0.125 0.5,-0.215 0.77,-0.267 0.314,-0.061 0.635,-0.089 0.955,-0.082 a 8.463,8.463 0 0 1 2.775,0.507 l 0.22,0.082 0.301,0.123 0.455,0.205 0.184,0.288 -0.044,0.095 c -0.104,0.261 -0.312,0.475 -0.58,0.596 a 2.384,2.384 0 0 1 -0.91,0.191 C 71.47,32.231 71.09,32.192 70.72,32.108 a 13.637,13.637 0 0 1 -1.233,-0.322 21.17,21.17 0 0 1 -1.197,-0.41 l -1.006,-0.39 c 0.083,-0.208 0.238,-0.384 0.44,-0.5 z"
           id="path142"
           style="fill:#00ff00" /><path
           d="m 42.847,20.167 0.048,-0.148 a 1.87,1.87 0 0 0 0.055,-0.283 1.072,1.072 0 0 0 0,-0.282 0.27,0.27 0 0 0 -0.124,-0.198 20.49,20.49 0 0 0 -2.48,-1.335 42.695,42.695 0 0 0 -2.569,-1.052 0.817,0.817 0 0 1 -0.158,-0.41 4.165,4.165 0 0 1 0,-0.43 l 0.558,-1.28 c 0.207,-0.46 0.437,-0.911 0.688,-1.349 0.242,-0.434 0.52,-0.845 0.834,-1.229 a 4.39,4.39 0 0 1 1.02,-0.925 2.71,2.71 0 0 1 1.24,-0.424 3.241,3.241 0 0 1 1.535,0.29 c 0.203,0.087 0.4,0.186 0.593,0.296 0.246,0.134 0.477,0.295 0.688,0.48 0.196,0.17 0.362,0.374 0.49,0.601 a 0.787,0.787 0 0 1 0,0.707 l -0.097,0.254 -0.076,0.12 -0.179,0.318 -0.11,0.19 -0.22,0.36 -0.049,0.078 -0.117,0.17 0.138,0.325 a 0.07,0.07 0 0 0 0.034,0.042 h 0.07 a 0.512,0.512 0 0 0 0.447,0 1.43,1.43 0 0 0 0.406,-0.31 c 0.123,-0.131 0.234,-0.273 0.331,-0.424 a 2.58,2.58 0 0 0 0.406,-1.702 2.662,2.662 0 0 0 -0.399,-1.103 3.404,3.404 0 0 0 -0.82,-0.875 5.163,5.163 0 0 0 -1.15,-0.65 5.017,5.017 0 0 0 -1.867,-0.424 3.7,3.7 0 0 0 -1.55,0.304 c -0.47,0.21 -0.898,0.51 -1.26,0.883 a 8.306,8.306 0 0 0 -1.033,1.306 c -0.325,0.503 -0.612,1.03 -0.861,1.575 -0.257,0.56 -0.487,1.124 -0.689,1.689 l -0.041,0.113 -0.634,1.667 a 58.21,58.21 0 0 0 -0.579,1.66 38.73,38.73 0 0 0 -0.688,2.31 c -0.212,0.795 -0.384,1.53 -0.517,2.203 a 7.442,7.442 0 0 0 -0.138,1.717 c 0.028,0.47 0.18,0.765 0.455,0.883 0.086,0.034 0.176,0.058 0.268,0.07 a 0.947,0.947 0 0 0 0.324,0 0.68,0.68 0 0 0 0.296,-0.134 0.475,0.475 0 0 0 0.159,-0.268 l 1.433,-6.965 0.09,-0.226 a 0.676,0.676 0 0 1 0.433,-0.113 3,3 0 0 1 0.551,0.07 c 0.155,0.032 0.307,0.077 0.455,0.135 l 0.296,0.127 0.634,0.24 0.571,0.226 0.283,0.113 0.585,0.233 1.075,0.41 0.688,0.247 z"
           id="path144"
           style="fill:#00ff00" /></g><path
         d="M 135.966,66.623 C 113.467,70.815 93.557,66.493 76.237,53.657 69.448,48.475 64.634,42.687 61.794,36.295 l 3.86,2.999 a 0.572,0.572 0 0 0 0.994,-0.324 0.562,0.562 0 0 0 -0.292,-0.547 l -5.51,-4.301 a 0.573,0.573 0 0 0 -0.918,0.357 l -0.923,6.937 a 0.568,0.568 0 0 0 0.495,0.638 c 0.314,0.04 0.603,-0.18 0.645,-0.493 l 0.623,-4.767 c 2.945,6.554 7.875,12.471 14.79,17.751 17.59,13.038 37.795,17.435 60.617,13.19 a 0.577,0.577 0 0 0 0.466,-0.67 0.577,0.577 0 0 0 -0.675,-0.459 z"
         id="path147"
         transform="matrix(-0.90630779,-0.42261826,-0.42261826,0.90630779,208.31291,46.181861)"
         style="fill:#00ff00" /></g></g></svg>
